<?xml version="1.0" standalone="no"?>
<!DOCTYPE svg PUBLIC "-//W3C//DTD SVG 20010904//EN"
 "http://www.w3.org/TR/2001/REC-SVG-20010904/DTD/svg10.dtd">
<svg version="1.0" xmlns="http://www.w3.org/2000/svg"
 width="512.000000pt" height="512.000000pt" viewBox="0 0 512.000000 512.000000"
 preserveAspectRatio="xMidYMid meet">

<g transform="translate(0.000000,512.000000) scale(0.100000,-0.100000)"
fill="#000000" stroke="none">
<path d="M0 2560 l0 -2560 2560 0 2560 0 0 2560 0 2560 -2560 0 -2560 0 0
-2560z m3153 1275 c323 -558 587 -1018 587 -1023 -1 -4 -266 -130 -590 -280
l-589 -272 -413 191 c-227 105 -489 227 -582 270 -92 44 -172 79 -177 79 -5 0
-9 4 -9 9 0 6 116 211 258 458 143 246 270 467 283 491 125 222 635 1092 639
1092 3 0 270 -457 593 -1015z m-916 873 c-13 -24 -253 -446 -532 -938 -280
-492 -509 -896 -510 -898 -4 -5 -910 -239 -914 -236 -4 3 568 614 575 614 3 0
-4 -12 -15 -26 -12 -15 -21 -30 -21 -34 0 -7 318 -46 324 -39 8 10 76 120 76
123 0 3 -35 8 -77 11 -42 4 -88 11 -102 14 -25 7 -24 8 19 37 25 17 89 56 142
87 120 71 205 148 262 240 72 115 83 191 34 236 l-21 20 74 79 c41 43 216 230
389 415 173 185 317 337 318 337 2 0 -7 -19 -21 -42z m1072 -430 c204 -218
371 -399 371 -401 0 -3 -16 -8 -35 -11 -65 -12 -82 -74 -44 -153 26 -55 106
-143 151 -167 31 -17 34 -22 34 -65 1 -124 176 -314 317 -343 78 -16 134 2
153 49 9 19 13 42 10 50 -3 8 -2 13 2 11 13 -5 570 -603 566 -607 -2 -2 -206
47 -453 109 l-449 113 -523 921 c-288 507 -530 932 -538 946 -22 37 24 -10
438 -452z m-1909 -521 c0 -38 -41 -106 -91 -154 -19 -17 -92 -68 -164 -113
-71 -45 -141 -91 -154 -103 l-25 -22 20 25 c10 14 98 110 194 213 187 199 220
223 220 154z m2381 -7 c18 0 92 -76 105 -107 19 -45 9 -63 -33 -63 -29 0 -45
9 -84 48 -56 56 -71 98 -43 119 10 7 25 11 32 8 8 -3 18 -5 23 -5z m248 -311
c49 -36 103 -121 99 -155 -5 -42 -55 -46 -110 -7 -71 49 -129 158 -100 187 13
14 79 -1 111 -25z m-2139 -1076 l565 -262 3 -918 c1 -626 -1 -914 -8 -907 -78
78 -2077 2180 -2075 2182 1 1 191 51 421 111 l419 107 55 -25 c30 -13 309
-143 620 -288z m2456 201 l426 -107 -85 -86 c-46 -47 -497 -516 -1002 -1041
-505 -525 -942 -980 -971 -1010 l-54 -55 2 918 3 918 235 109 c129 59 404 187
610 284 206 96 383 175 393 175 9 1 209 -47 443 -105z"/>
<path d="M2167 3680 c-103 -26 -152 -75 -195 -192 -25 -69 -27 -83 -27 -263 0
-170 2 -198 23 -262 28 -91 73 -151 137 -183 43 -21 64 -25 145 -25 81 0 102
4 144 25 122 61 174 218 163 490 -11 283 -94 406 -280 415 -40 3 -89 0 -110
-5z m128 -146 c65 -30 91 -146 82 -364 -7 -166 -24 -233 -70 -260 -64 -40
-134 -17 -161 51 -26 63 -39 201 -32 324 10 192 43 256 134 264 8 0 29 -6 47
-15z"/>
<path d="M2808 3657 c-122 -35 -185 -140 -208 -348 -23 -211 17 -414 99 -502
52 -57 96 -72 206 -72 87 0 106 3 149 25 122 61 174 218 163 490 -11 286 -93
406 -285 416 -46 2 -96 -1 -124 -9z m175 -162 c40 -41 52 -110 52 -300 0 -205
-15 -273 -68 -306 -45 -28 -103 -20 -139 20 -37 42 -51 121 -51 291 0 247 30
320 131 320 39 0 54 -5 75 -25z"/>
<path d="M1353 2153 c-115 -40 -133 -175 -42 -312 40 -60 91 -102 145 -121 31
-11 32 -12 17 -41 -20 -41 -4 -106 43 -176 60 -88 143 -132 249 -132 151 -1
217 93 165 233 l-22 58 -49 -6 c-78 -11 -80 -12 -63 -51 8 -19 14 -43 14 -53
0 -51 -87 -70 -141 -31 -37 26 -71 92 -67 127 3 24 34 49 82 65 5 2 -3 26 -18
54 l-26 52 -48 -6 c-36 -4 -59 -1 -87 13 -48 22 -95 94 -95 144 0 97 132 97
196 0 15 -22 33 -39 39 -36 7 2 33 8 59 11 25 4 48 11 51 15 8 13 -82 125
-124 154 -22 16 -57 34 -78 42 -50 17 -147 16 -200 -3z"/>
<path d="M3622 2173 c-84 -171 -245 -375 -398 -504 -68 -58 -92 -86 -110 -127
-23 -51 -30 -82 -18 -82 3 0 107 -18 230 -41 123 -23 230 -39 237 -36 16 7 61
127 51 136 -5 4 -80 20 -166 36 l-157 28 67 60 c135 121 255 258 334 382 48
73 98 168 98 183 0 5 -17 12 -37 15 -21 4 -51 9 -68 12 -29 6 -31 4 -63 -62z"/>
</g>
</svg>
