<svg width="28" height="28" viewBox="0 0 28 28" fill="none" xmlns="http://www.w3.org/2000/svg">
<g clip-path="url(#clip0_991_695)">
<path d="M0.170898 14.4128L8.9209 23.1628C9.14878 23.3907 9.51792 23.3907 9.74575 23.1628C9.97363 22.9349 9.97363 22.5658 9.74575 22.338L1.9915 14.5837H27.4166C27.7391 14.5837 28 14.3228 28 14.0004C28 13.6779 27.7391 13.417 27.4166 13.417H1.9915L9.74575 5.66282C9.97363 5.43494 9.97363 5.0658 9.74575 4.83797C9.63184 4.72406 9.48254 4.66707 9.3333 4.66707C9.18405 4.66707 9.03481 4.72406 8.92084 4.83797L0.170843 13.588C-0.0569848 13.8158 -0.0569844 14.1849 0.170898 14.4128Z" fill="#3B373A"/>
</g>
<defs>
<clipPath id="clip0_991_695">
<rect width="28" height="28" fill="white" transform="translate(28 28) rotate(180)"/>
</clipPath>
</defs>
</svg>
