<svg width="13" height="13" viewBox="0 0 13 13" fill="none" xmlns="http://www.w3.org/2000/svg">
<path fill-rule="evenodd" clip-rule="evenodd" d="M3.7756 1.33737C3.81334 1.29954 3.85817 1.26952 3.90752 1.24904C3.95688 1.22856 4.00979 1.21802 4.06323 1.21802C4.11666 1.21802 4.16957 1.22856 4.21893 1.24904C4.26828 1.26952 4.31311 1.29954 4.35085 1.33737L9.22585 6.21237C9.26368 6.25011 9.2937 6.29494 9.31418 6.34429C9.33466 6.39365 9.3452 6.44656 9.3452 6.49999C9.3452 6.55343 9.33466 6.60634 9.31418 6.6557C9.2937 6.70505 9.26368 6.74988 9.22585 6.78762L4.35085 11.6626C4.27457 11.7389 4.17111 11.7818 4.06323 11.7818C3.95535 11.7818 3.85188 11.7389 3.7756 11.6626C3.69932 11.5863 3.65646 11.4829 3.65646 11.375C3.65646 11.2671 3.69932 11.1637 3.7756 11.0874L8.36379 6.49999L3.7756 1.91262C3.73777 1.87488 3.70775 1.83005 3.68727 1.7807C3.66679 1.73134 3.65625 1.67843 3.65625 1.62499C3.65625 1.57156 3.66679 1.51865 3.68727 1.46929C3.70775 1.41994 3.73777 1.37511 3.7756 1.33737V1.33737Z" fill="#3B373A"/>
</svg>
