<svg width="15" height="15" viewBox="0 0 15 15" fill="none" xmlns="http://www.w3.org/2000/svg">
<path d="M7.5 15C3.36457 15 0 11.6354 0 7.5C0 3.36457 3.36457 0 7.5 0C11.6354 0 15 3.36457 15 7.5C15 11.6354 11.6354 15 7.5 15ZM7.5 0.937504C3.88137 0.937504 0.937504 3.88137 0.937504 7.5C0.937504 11.1186 3.88137 14.0625 7.5 14.0625C11.1186 14.0625 14.0625 11.1186 14.0625 7.5C14.0625 3.88137 11.1186 0.937504 7.5 0.937504Z" fill="white"/>
<path d="M7.50002 11.2505C5.4323 11.2505 3.75 9.56825 3.75 7.50051C3.75 5.43276 5.43227 3.75049 7.50002 3.75049C8.5167 3.75049 9.46794 4.15058 10.1793 4.87704L9.50916 5.53255C8.97588 4.98779 8.26268 4.68796 7.50002 4.68796C5.94911 4.68796 4.6875 5.94956 4.6875 7.50047C4.6875 9.05138 5.94911 10.313 7.50002 10.313C8.26221 10.313 8.9754 10.0131 9.50916 9.4684L10.1784 10.1248C9.46747 10.8509 8.51626 11.2505 7.50002 11.2505Z" fill="white"/>
</svg>
