<svg width="23" height="23" viewBox="0 0 23 23" fill="none" xmlns="http://www.w3.org/2000/svg">
<path d="M11.5 0C5.15883 0 0 5.15883 0 11.5C0 17.8412 5.15883 23 11.5 23C17.8412 23 23 17.8412 23 11.5C23 5.15883 17.8412 0 11.5 0ZM11.5 21.3572C6.06459 21.3572 1.64284 16.9354 1.64284 11.5C1.64284 6.06459 6.06459 1.64284 11.5 1.64284C16.9354 1.64284 21.3572 6.06459 21.3572 11.5C21.3572 16.9354 16.9354 21.3572 11.5 21.3572Z" fill="white"/>
<path d="M11.4992 6.02344C11.0455 6.02344 10.6777 6.39117 10.6777 6.84488V16.1544C10.6777 16.6081 11.0455 16.9758 11.4992 16.9758C11.9529 16.9758 12.3206 16.6081 12.3206 16.1544V6.84488C12.3206 6.39117 11.9529 6.02344 11.4992 6.02344Z" fill="white"/>
<path d="M16.1544 10.6787H6.84488C6.39117 10.6787 6.02344 11.0464 6.02344 11.5001C6.02344 11.9539 6.39117 12.3216 6.84488 12.3216H16.1544C16.6081 12.3216 16.9758 11.9539 16.9758 11.5001C16.9758 11.0464 16.6081 10.6787 16.1544 10.6787Z" fill="white"/>
</svg>
