<svg width="23" height="29" viewBox="0 0 23 29" fill="none" xmlns="http://www.w3.org/2000/svg">
<g clip-path="url(#clip0_929_1756)">
<path d="M2.70013 7.70001C2.70013 7.70001 1.40013 20.4 1.20013 24.8C1.10013 26 1.80013 27.2 4.00013 27.6C6.20013 28 19.4001 27.6 19.4001 27.6C19.4001 27.6 21.6001 27.4 21.9001 24.8C22.1001 22.7 20.5001 7.70001 20.5001 7.70001C20.5001 7.70001 20.4001 6.50001 19.0001 6.60001C17.6001 6.70001 3.70013 6.60001 3.70013 6.60001C3.70013 6.60001 2.80013 6.70001 2.70013 7.70001Z" stroke="#3B373A" stroke-width="0.75" stroke-miterlimit="10"/>
<path d="M6.90027 10C6.90027 8.60001 6.80027 5.30001 7.20027 4.20001C7.60027 3.00001 8.80027 1.20001 11.4003 1.20001C14.2003 1.20001 15.4003 2.90001 15.8003 4.20001C16.2003 5.80001 16.1003 9.90001 16.1003 9.90001" stroke="#3B373A" stroke-width="0.75" stroke-miterlimit="10"/>
</g>
<defs>
<clipPath id="clip0_929_1756">
<rect width="23" height="29" fill="white"/>
</clipPath>
</defs>
</svg>
