<svg width="23" height="14" viewBox="0 0 23 14" fill="none" xmlns="http://www.w3.org/2000/svg">
<path fill-rule="evenodd" clip-rule="evenodd" d="M19.2794 10.6031C20.5171 9.6181 21.5265 8.4362 22.2531 7.12121C22.2717 7.08279 22.2812 7.04155 22.2812 6.99989C22.2812 6.95824 22.2717 6.917 22.2531 6.87858C22.2233 6.81752 19.1963 0.75002 11.5 0.75002C8.87303 0.728109 6.32127 1.51207 4.2932 2.96411L3.7205 3.39689C2.48289 4.3819 1.47349 5.56376 0.746782 6.87871C0.728279 6.91713 0.71875 6.95837 0.71875 7.00002C0.71875 7.04167 0.728279 7.08291 0.746782 7.12133C0.77661 7.18252 3.80359 13.25 11.5 13.25C14.1269 13.2719 16.6787 12.488 18.7067 11.0359L19.2794 10.6031ZM21.526 7.00002C21.0655 6.16902 18.1193 1.37502 11.5 1.37502C9.13142 1.35561 6.82535 2.03543 4.95869 3.30336L4.36899 3.72736C3.17475 4.6493 2.19239 5.7598 1.47398 7.00002C1.93441 7.83102 4.88067 12.625 11.5 12.625C13.8685 12.6444 16.1746 11.9646 18.0412 10.6967L18.6309 10.2727C19.8252 9.35074 20.8075 8.24024 21.526 7.00002Z" fill="#A6A3A5"/>
<path fill-rule="evenodd" clip-rule="evenodd" d="M15.3845 8.61786C15.8529 7.77059 15.9377 6.80111 15.6221 5.90196C15.3066 5.00281 14.6136 4.23976 13.6809 3.76433C12.7483 3.28891 11.6441 3.13588 10.5877 3.33565C9.53125 3.53542 8.59987 4.07338 7.97848 4.84268L7.61545 5.38218C7.14703 6.22945 7.06219 7.19893 7.37778 8.09808C7.69338 8.99723 8.38631 9.76028 9.31898 10.2357C10.2517 10.7111 11.3558 10.8642 12.4123 10.6644C13.4687 10.4646 14.4001 9.92666 15.0214 9.15736L15.3845 8.61786ZM12.2298 10.0605C13.1019 9.90182 13.8749 9.4667 14.3985 8.8398L14.7631 8.30115C15.1362 7.5977 15.1951 6.79871 14.9283 6.05961C14.6615 5.3205 14.088 4.69413 13.3194 4.30236C12.5509 3.91058 11.6422 3.78141 10.7702 3.93997C9.89822 4.09854 9.12522 4.5335 8.60161 5.16024L8.23684 5.69889C7.86351 6.40237 7.80451 7.20146 8.0713 7.94067C8.3381 8.67988 8.91162 9.30635 9.68027 9.69817C10.4489 10.09 11.3577 10.2191 12.2298 10.0605Z" fill="#A6A3A5"/>
</svg>
