<svg width="22" height="13" viewBox="0 0 22 13" fill="none" xmlns="http://www.w3.org/2000/svg">
<path d="M21.3849 11.2933L18.5607 9.85357C19.7983 8.86853 20.8077 7.68663 21.5344 6.37163C21.5529 6.33321 21.5624 6.29198 21.5624 6.25032C21.5624 6.20867 21.5529 6.16743 21.5344 6.12901C21.5046 6.06795 18.4776 0.000447134 10.7812 0.000447134C8.15428 -0.0214634 5.60252 0.762499 3.57445 2.21454L0.541327 0.668322C0.459092 0.626393 0.36107 0.614588 0.268825 0.635504C0.17658 0.65642 0.0976691 0.708344 0.0494507 0.779853C0.00123224 0.851362 -0.0123435 0.936599 0.0117101 1.01681C0.0357637 1.09702 0.0954762 1.16564 0.177712 1.20757L3.00175 2.64732C1.76414 3.63233 0.754743 4.81419 0.0280319 6.12913C0.00952887 6.16756 0 6.20879 0 6.25045C0 6.2921 0.00952887 6.33334 0.0280319 6.37176C0.05786 6.43295 3.08484 12.5004 10.7812 12.5004C13.4082 12.5224 15.9599 11.7384 17.988 10.2864L21.0213 11.8326C21.1035 11.8745 21.2015 11.8863 21.2938 11.8654C21.386 11.8445 21.4649 11.7926 21.5132 11.721C21.5614 11.6495 21.575 11.5643 21.5509 11.4841C21.5268 11.4039 21.4671 11.3353 21.3849 11.2933ZM10.7812 0.625447C17.4005 0.625447 20.3468 5.41945 20.8072 6.25045C20.0888 7.49066 19.1064 8.60117 17.9122 9.5231L14.6657 7.86829C15.1342 7.02102 15.219 6.05154 14.9034 5.15239C14.5878 4.25324 13.8949 3.49019 12.9622 3.01476C12.0295 2.53933 10.9253 2.38631 9.86892 2.58608C8.8125 2.78585 7.88112 3.3238 7.25973 4.0931L4.23994 2.55379C6.1066 1.28586 8.41267 0.606038 10.7812 0.625447ZM7.51809 4.94932L13.6797 8.09023C13.1562 8.71713 12.3831 9.15224 11.511 9.3109C10.639 9.46956 9.73016 9.34042 8.96152 8.9486C8.19287 8.55678 7.61935 7.93031 7.35255 7.1911C7.08576 6.45188 7.14476 5.6528 7.51809 4.94932ZM7.88286 4.41067C8.40647 3.78393 9.17947 3.34896 10.0515 3.1904C10.9235 3.03184 11.8321 3.16101 12.6007 3.55278C13.3692 3.94456 13.9427 4.57093 14.2095 5.31003C14.4764 6.04914 14.4175 6.84813 14.0443 7.55157L7.88286 4.41067ZM10.7812 11.8754C4.16192 11.8754 1.21566 7.08145 0.755227 6.25045C1.47364 5.01023 2.456 3.89973 3.65024 2.97779L6.8967 4.6326C6.42828 5.47988 6.34344 6.44935 6.65903 7.3485C6.97463 8.24765 7.66756 9.01071 8.60023 9.48614C9.53291 9.96156 10.6371 10.1146 11.6935 9.91481C12.7499 9.71504 13.6813 9.17709 14.3027 8.40779L17.3225 9.9471C15.4558 11.215 13.1498 11.8949 10.7812 11.8754Z" fill="#A6A3A5"/>
</svg>
