<svg width="22" height="25" viewBox="0 0 22 25" fill="none" xmlns="http://www.w3.org/2000/svg">
<path d="M15.762 2.15185C13.9268 2.14071 12.1821 3.05661 11 4.65182C9.82523 3.04571 8.07572 2.1272 6.23794 2.15185C2.79281 2.15185 0 5.3255 0 9.24042C0 15.9493 10.3038 22.4999 10.7215 22.7531C10.8901 22.8811 11.1099 22.8811 11.2785 22.7531C11.6962 22.4999 22 16.0442 22 9.24042C22 5.3255 19.2071 2.15185 15.762 2.15185ZM11 21.4873C9.38479 20.4113 1.11393 14.6835 1.11393 9.24042C1.11393 6.02462 3.40803 3.41761 6.23799 3.41761C7.97098 3.39175 9.59278 4.38506 10.5266 6.04418C10.7162 6.34128 11.0819 6.40749 11.3434 6.19197C11.3933 6.15079 11.4372 6.10093 11.4734 6.04418C13.0221 3.35268 16.1977 2.59748 18.5662 4.35738C20.0162 5.43477 20.8889 7.27172 20.886 9.24036C20.8861 14.7467 12.6152 20.4429 11 21.4873Z" fill="white"/>
</svg>
