<svg width="19" height="16" viewBox="0 0 19 16" fill="none" xmlns="http://www.w3.org/2000/svg">
<g clip-path="url(#clip0_999_1106)">
<path d="M18.884 7.76441L12.9465 2.76441C12.7919 2.63419 12.5414 2.63419 12.3868 2.76441C12.2322 2.89463 12.2322 3.10557 12.3868 3.23576L17.6486 7.66675H0.395846C0.177049 7.66675 0 7.81585 0 8.0001C0 8.18435 0.177049 8.33344 0.395846 8.33344H17.6486L12.3868 12.7644C12.2322 12.8946 12.2322 13.1056 12.3868 13.2358C12.4641 13.3008 12.5654 13.3334 12.6667 13.3334C12.768 13.3334 12.8692 13.3008 12.9466 13.2358L18.8841 8.23575C19.0387 8.10557 19.0387 7.89463 18.884 7.76441Z" fill="#3B373A"/>
</g>
<defs>
<clipPath id="clip0_999_1106">
<rect width="19" height="16" fill="white"/>
</clipPath>
</defs>
</svg>
