<svg width="118" height="93" viewBox="0 0 118 93" fill="none" xmlns="http://www.w3.org/2000/svg">
<path d="M19.008 24.968C17.472 25.0533 16.3413 25.224 15.616 25.48C14.9333 25.736 14.464 26.2267 14.208 26.952C13.952 27.6773 13.824 28.8507 13.824 30.472V62.216C13.824 63.8373 13.952 65.0107 14.208 65.736C14.464 66.4613 14.9333 66.952 15.616 67.208C16.3413 67.464 17.472 67.6347 19.008 67.72V69C17.0453 68.872 14.336 68.808 10.88 68.808C7.21067 68.808 4.48 68.872 2.688 69V67.72C4.224 67.6347 5.33333 67.464 6.016 67.208C6.74133 66.952 7.232 66.4613 7.488 65.736C7.744 65.0107 7.872 63.8373 7.872 62.216V30.472C7.872 28.8507 7.744 27.6773 7.488 26.952C7.232 26.2267 6.74133 25.736 6.016 25.48C5.33333 25.224 4.224 25.0533 2.688 24.968V23.688C4.48 23.816 7.21067 23.88 10.88 23.88C14.2933 23.88 17.0027 23.816 19.008 23.688V24.968ZM59.5755 23.688C59.2768 26.7173 59.1275 29.448 59.1275 31.88C59.1275 34.0133 59.1915 35.7627 59.3195 37.128H57.8475C57.5062 33.8427 57.0795 31.4107 56.5675 29.832C56.0555 28.2107 55.1595 27.0373 53.8795 26.312C52.5995 25.544 50.6368 25.16 47.9915 25.16H44.5355V61.576C44.5355 63.368 44.7062 64.6693 45.0475 65.48C45.3888 66.2907 45.9862 66.8453 46.8395 67.144C47.6928 67.4427 49.0795 67.6347 50.9995 67.72V69C48.7808 68.872 45.6448 68.808 41.5915 68.808C37.3248 68.808 34.1675 68.872 32.1195 69V67.72C34.0395 67.6347 35.4262 67.4427 36.2795 67.144C37.1328 66.8453 37.7302 66.2907 38.0715 65.48C38.4128 64.6693 38.5835 63.368 38.5835 61.576V25.16H35.1275C32.4822 25.16 30.5195 25.544 29.2395 26.312C27.9595 27.0373 27.0635 28.2107 26.5515 29.832C26.0395 31.4107 25.6128 33.8427 25.2715 37.128H23.7995C23.9275 35.7627 23.9915 34.0133 23.9915 31.88C23.9915 29.448 23.8422 26.7173 23.5435 23.688C27.0848 23.816 33.1008 23.88 41.5915 23.88C50.0395 23.88 56.0342 23.816 59.5755 23.688Z" fill="white"/>
<path d="M98.992 68.032C100.528 67.9467 101.659 67.776 102.384 67.52C103.067 67.264 103.536 66.7733 103.792 66.048C104.048 65.3227 104.176 64.1493 104.176 62.528V30.784C104.176 29.1627 104.048 27.9893 103.792 27.264C103.536 26.5387 103.067 26.048 102.384 25.792C101.659 25.536 100.528 25.3653 98.992 25.28V24C100.955 24.128 103.664 24.192 107.12 24.192C110.789 24.192 113.52 24.128 115.312 24V25.28C113.776 25.3653 112.667 25.536 111.984 25.792C111.259 26.048 110.768 26.5387 110.512 27.264C110.256 27.9893 110.128 29.1627 110.128 30.784V62.528C110.128 64.1493 110.256 65.3227 110.512 66.048C110.768 66.7733 111.259 67.264 111.984 67.52C112.667 67.776 113.776 67.9467 115.312 68.032V69.312C113.52 69.184 110.789 69.12 107.12 69.12C103.707 69.12 100.997 69.184 98.992 69.312V68.032ZM58.4245 69.312C58.7232 66.2827 58.8725 63.552 58.8725 61.12C58.8725 58.9867 58.8085 57.2373 58.6805 55.872H60.1525C60.4938 59.1573 60.9205 61.5893 61.4325 63.168C61.9445 64.7893 62.8405 65.9627 64.1205 66.688C65.4005 67.456 67.3632 67.84 70.0085 67.84H73.4645V31.424C73.4645 29.632 73.2938 28.3307 72.9525 27.52C72.6112 26.7093 72.0138 26.1547 71.1605 25.856C70.3072 25.5573 68.9205 25.3653 67.0005 25.28V24C69.2192 24.128 72.3552 24.192 76.4085 24.192C80.6752 24.192 83.8325 24.128 85.8805 24V25.28C83.9605 25.3653 82.5738 25.5573 81.7205 25.856C80.8672 26.1547 80.2698 26.7093 79.9285 27.52C79.5872 28.3307 79.4165 29.632 79.4165 31.424V67.84H82.8725C85.5178 67.84 87.4805 67.456 88.7605 66.688C90.0405 65.9627 90.9365 64.7893 91.4485 63.168C91.9605 61.5893 92.3872 59.1573 92.7285 55.872H94.2005C94.0725 57.2373 94.0085 58.9867 94.0085 61.12C94.0085 63.552 94.1578 66.2827 94.4565 69.312C90.9152 69.184 84.8992 69.12 76.4085 69.12C67.9605 69.12 61.9658 69.184 58.4245 69.312Z" fill="white"/>
</svg>
