<svg width="159" height="114" viewBox="0 0 159 114" fill="none" xmlns="http://www.w3.org/2000/svg">
<path d="M25.245 23.52C23.205 23.6333 21.7033 23.86 20.74 24.2C19.8333 24.54 19.21 25.1917 18.87 26.155C18.53 27.1183 18.36 28.6767 18.36 30.83V72.99C18.36 75.1433 18.53 76.7017 18.87 77.665C19.21 78.6283 19.8333 79.28 20.74 79.62C21.7033 79.96 23.205 80.1867 25.245 80.3V82C22.6383 81.83 19.04 81.745 14.45 81.745C9.57667 81.745 5.95 81.83 3.57 82V80.3C5.61 80.1867 7.08333 79.96 7.99 79.62C8.95333 79.28 9.605 78.6283 9.945 77.665C10.285 76.7017 10.455 75.1433 10.455 72.99V30.83C10.455 28.6767 10.285 27.1183 9.945 26.155C9.605 25.1917 8.95333 24.54 7.99 24.2C7.08333 23.86 5.61 23.6333 3.57 23.52V21.82C5.95 21.99 9.57667 22.075 14.45 22.075C18.9833 22.075 22.5817 21.99 25.245 21.82V23.52ZM79.1237 21.82C78.727 25.8433 78.5287 29.47 78.5287 32.7C78.5287 35.5333 78.6137 37.8567 78.7837 39.67H76.8287C76.3754 35.3067 75.8087 32.0767 75.1287 29.98C74.4487 27.8267 73.2587 26.2683 71.5587 25.305C69.8587 24.285 67.252 23.775 63.7387 23.775H59.1487V72.14C59.1487 74.52 59.3754 76.2483 59.8287 77.325C60.282 78.4017 61.0754 79.1383 62.2087 79.535C63.342 79.9317 65.1837 80.1867 67.7337 80.3V82C64.787 81.83 60.622 81.745 55.2387 81.745C49.572 81.745 45.3787 81.83 42.6587 82V80.3C45.2087 80.1867 47.0504 79.9317 48.1837 79.535C49.317 79.1383 50.1104 78.4017 50.5637 77.325C51.017 76.2483 51.2437 74.52 51.2437 72.14V23.775H46.6537C43.1404 23.775 40.5337 24.285 38.8337 25.305C37.1337 26.2683 35.9437 27.8267 35.2637 29.98C34.5837 32.0767 34.017 35.3067 33.5637 39.67H31.6087C31.7787 37.8567 31.8637 35.5333 31.8637 32.7C31.8637 29.47 31.6654 25.8433 31.2687 21.82C35.972 21.99 43.962 22.075 55.2387 22.075C66.4587 22.075 74.4204 21.99 79.1237 21.82Z" fill="#3B373A"/>
<path d="M133.755 80.48C135.795 80.3667 137.297 80.14 138.26 79.8C139.167 79.46 139.79 78.8083 140.13 77.845C140.47 76.8817 140.64 75.3233 140.64 73.17V31.01C140.64 28.8567 140.47 27.2983 140.13 26.335C139.79 25.3717 139.167 24.72 138.26 24.38C137.297 24.04 135.795 23.8133 133.755 23.7V22C136.362 22.17 139.96 22.255 144.55 22.255C149.423 22.255 153.05 22.17 155.43 22V23.7C153.39 23.8133 151.917 24.04 151.01 24.38C150.047 24.72 149.395 25.3717 149.055 26.335C148.715 27.2983 148.545 28.8567 148.545 31.01V73.17C148.545 75.3233 148.715 76.8817 149.055 77.845C149.395 78.8083 150.047 79.46 151.01 79.8C151.917 80.14 153.39 80.3667 155.43 80.48V82.18C153.05 82.01 149.423 81.925 144.55 81.925C140.017 81.925 136.418 82.01 133.755 82.18V80.48ZM79.8763 82.18C80.273 78.1567 80.4713 74.53 80.4713 71.3C80.4713 68.4667 80.3863 66.1433 80.2163 64.33H82.1713C82.6246 68.6933 83.1913 71.9233 83.8713 74.02C84.5513 76.1733 85.7413 77.7317 87.4413 78.695C89.1413 79.715 91.748 80.225 95.2613 80.225H99.8513V31.86C99.8513 29.48 99.6246 27.7517 99.1713 26.675C98.718 25.5983 97.9246 24.8617 96.7913 24.465C95.658 24.0683 93.8163 23.8133 91.2663 23.7V22C94.213 22.17 98.378 22.255 103.761 22.255C109.428 22.255 113.621 22.17 116.341 22V23.7C113.791 23.8133 111.95 24.0683 110.816 24.465C109.683 24.8617 108.89 25.5983 108.436 26.675C107.983 27.7517 107.756 29.48 107.756 31.86V80.225H112.346C115.86 80.225 118.466 79.715 120.166 78.695C121.866 77.7317 123.056 76.1733 123.736 74.02C124.416 71.9233 124.983 68.6933 125.436 64.33H127.391C127.221 66.1433 127.136 68.4667 127.136 71.3C127.136 74.53 127.335 78.1567 127.731 82.18C123.028 82.01 115.038 81.925 103.761 81.925C92.5413 81.925 84.5796 82.01 79.8763 82.18Z" fill="#3B373A"/>
</svg>
