<svg width="65" height="21" viewBox="0 0 65 21" fill="none" xmlns="http://www.w3.org/2000/svg">
<path d="M11.2156 15.434V17H2.07164V4.4H10.9636V5.966H3.87164V9.836H10.1896V11.366H3.87164V15.434H11.2156ZM24.9662 4.4V17H23.4902L15.9302 7.604V17H14.1302V4.4H15.6062L23.1662 13.796V4.4H24.9662ZM33.5716 4.4H35.3716V17H33.5716V4.4ZM41.6459 5.966H37.3259V4.4H47.7479V5.966H43.4279V17H41.6459V5.966Z" fill="#BF522A"/>
<path d="M62.1784 16.6H60.3784V4H62.1784V16.6ZM54.1041 15.034L58.4241 15.034V16.6L48.0021 16.6V15.034H52.3221V4H54.1041V15.034Z" fill="#BF522A"/>
</svg>
